<svg xmlns="http://www.w3.org/2000/svg" viewBox="0 0 1400 800" width="1400" height="800">
  <!-- Background -->
  <rect width="1400" height="800" fill="#f8f9fa"/>
  
  <!-- Central circle -->
  <circle cx="700" cy="400" r="80" fill="#ffffff" stroke="#333" stroke-width="2"/>
  <text x="700" y="390" font-family="Arial, sans-serif" font-size="20" font-weight="bold" text-anchor="middle" fill="#333">PURE</text>
  <text x="700" y="415" font-family="Arial, sans-serif" font-size="20" font-weight="bold" text-anchor="middle" fill="#333">PERFORMANCE</text>
  
  <!-- Branch 1: Objetivos y restricciones (Blue - Top) -->
  <path d="M 700 320 L 700 200 L 900 200" fill="none" stroke="#4169E1" stroke-width="3"/>
  <rect x="780" y="185" width="200" height="30" rx="15" fill="#4169E1"/>
  <text x="880" y="205" font-family="Arial, sans-serif" font-size="14" font-weight="bold" text-anchor="middle" fill="#ffffff">1. Objetivos y restricciones</text>
  
  <!-- Sub-branches for Branch 1 -->
  <line x1="980" y1="200" x2="1050" y2="140" stroke="#4169E1" stroke-width="2"/>
  <text x="1060" y="145" font-family="Arial, sans-serif" font-size="12" fill="#666">Definición de los KPIs de negocio</text>
  
  <line x1="980" y1="200" x2="1050" y2="180" stroke="#4169E1" stroke-width="2"/>
  <text x="1060" y="185" font-family="Arial, sans-serif" font-size="12" fill="#666">Análisis unit economics</text>
  
  <line x1="980" y1="200" x2="1050" y2="220" stroke="#4169E1" stroke-width="2"/>
  <text x="1060" y="225" font-family="Arial, sans-serif" font-size="12" fill="#666">Márgenes</text>
  
  <line x1="980" y1="200" x2="1050" y2="260" stroke="#4169E1" stroke-width="2"/>
  <text x="1060" y="265" font-family="Arial, sans-serif" font-size="12" fill="#666">Evitar vanity metrics</text>
  
  <!-- Branch 2: Calibrar la medición (Purple - Right top) -->
  <path d="M 760 360 L 900 320" fill="none" stroke="#9370DB" stroke-width="3"/>
  <rect x="780" y="305" width="180" height="30" rx="15" fill="#9370DB"/>
  <text x="870" y="325" font-family="Arial, sans-serif" font-size="14" font-weight="bold" text-anchor="middle" fill="#ffffff">2. Calibrar la medición</text>
  
  <!-- Sub-branches for Branch 2 -->
  <line x1="960" y1="320" x2="1030" y2="310" stroke="#9370DB" stroke-width="2"/>
  <text x="1040" y="315" font-family="Arial, sans-serif" font-size="12" fill="#666">Datos correctos y fiables</text>
  
  <line x1="960" y1="320" x2="1030" y2="340" stroke="#9370DB" stroke-width="2"/>
  <text x="1040" y="345" font-family="Arial, sans-serif" font-size="12" fill="#666">Eventos duplicados</text>
  
  <line x1="960" y1="320" x2="1030" y2="370" stroke="#9370DB" stroke-width="2"/>
  <text x="1040" y="375" font-family="Arial, sans-serif" font-size="12" fill="#666">Errores en el Google Tag Manager</text>
  
  <!-- Branch 3: Control macro (Pink - Right bottom) -->
  <path d="M 760 440 L 900 480" fill="none" stroke="#E91E63" stroke-width="3"/>
  <rect x="780" y="465" width="160" height="30" rx="15" fill="#E91E63"/>
  <text x="860" y="485" font-family="Arial, sans-serif" font-size="14" font-weight="bold" text-anchor="middle" fill="#ffffff">3. Control macro</text>
  
  <!-- Sub-branches for Branch 3 -->
  <line x1="940" y1="480" x2="1010" y2="450" stroke="#E91E63" stroke-width="2"/>
  <text x="1020" y="455" font-family="Arial, sans-serif" font-size="12" fill="#666">Reporting automático</text>
  
  <line x1="940" y1="480" x2="1010" y2="490" stroke="#E91E63" stroke-width="2"/>
  <text x="1020" y="495" font-family="Arial, sans-serif" font-size="12" fill="#666">Proyecciones del mes</text>
  
  <line x1="940" y1="480" x2="1010" y2="530" stroke="#E91E63" stroke-width="2"/>
  <text x="1020" y="535" font-family="Arial, sans-serif" font-size="12" fill="#666">Toma rápida de decisiones</text>
  
  <!-- Branch 4: Fine Tuning (Red - Bottom) -->
  <path d="M 700 480 L 700 600 L 500 600" fill="none" stroke="#DC143C" stroke-width="3"/>
  <rect x="380" y="585" width="140" height="30" rx="15" fill="#DC143C"/>
  <text x="450" y="605" font-family="Arial, sans-serif" font-size="14" font-weight="bold" text-anchor="middle" fill="#ffffff">4. Fine Tuning</text>
  
  <!-- Sub-branches for Branch 4 -->
  <line x1="380" y1="600" x2="310" y2="560" stroke="#DC143C" stroke-width="2"/>
  <text x="300" y="565" font-family="Arial, sans-serif" font-size="12" fill="#666" text-anchor="end">Países</text>
  
  <line x1="380" y1="600" x2="310" y2="590" stroke="#DC143C" stroke-width="2"/>
  <text x="300" y="595" font-family="Arial, sans-serif" font-size="12" fill="#666" text-anchor="end">Canales</text>
  
  <line x1="380" y1="600" x2="310" y2="620" stroke="#DC143C" stroke-width="2"/>
  <text x="300" y="625" font-family="Arial, sans-serif" font-size="12" fill="#666" text-anchor="end">Campañas</text>
  
  <line x1="380" y1="600" x2="310" y2="650" stroke="#DC143C" stroke-width="2"/>
  <text x="300" y="655" font-family="Arial, sans-serif" font-size="12" fill="#666" text-anchor="end">Anuncios</text>
  
  <!-- Branch 5: Iterar, pivotar y escalar (Yellow - Left) -->
  <path d="M 640 360 L 500 320" fill="none" stroke="#FFD700" stroke-width="3"/>
  <rect x="320" y="305" width="200" height="30" rx="15" fill="#FFD700"/>
  <text x="420" y="325" font-family="Arial, sans-serif" font-size="14" font-weight="bold" text-anchor="middle" fill="#333">5. Iterar, pivotar y escalar</text>
  
  <!-- Sub-branches for Branch 5 -->
  <line x1="320" y1="320" x2="250" y2="280" stroke="#FFD700" stroke-width="2"/>
  <text x="240" y="285" font-family="Arial, sans-serif" font-size="12" fill="#666" text-anchor="end">Hipótesis validadas</text>
  
  <line x1="320" y1="320" x2="250" y2="310" stroke="#FFD700" stroke-width="2"/>
  <text x="240" y="315" font-family="Arial, sans-serif" font-size="12" fill="#666" text-anchor="end">Asignación inteligente de presupuesto</text>
  
  <line x1="320" y1="320" x2="250" y2="340" stroke="#FFD700" stroke-width="2"/>
  <text x="240" y="345" font-family="Arial, sans-serif" font-size="12" fill="#666" text-anchor="end">Escalado horizontal</text>
  
  <line x1="320" y1="320" x2="250" y2="370" stroke="#FFD700" stroke-width="2"/>
  <text x="240" y="375" font-family="Arial, sans-serif" font-size="12" fill="#666" text-anchor="end">Escalado vertical</text>
  
  <!-- NML Logo -->
  <text x="1320" y="760" font-family="Arial, sans-serif" font-size="32" font-weight="bold" fill="#0A2540">NML</text>
</svg>
